<?xml version="1.0" encoding="UTF-8"?>
<svg id="Layer_2" data-name="Layer 2" xmlns="http://www.w3.org/2000/svg" viewBox="0 0 74.32 136.26">
  <defs>
    <style>
      .cls-1 {
        fill: #fff;
      }

      .cls-2 {
        fill: #6aac75;
      }

      .cls-3 {
        fill: none;
        stroke: #fff;
        stroke-linecap: round;
        stroke-miterlimit: 10;
        stroke-width: 3px;
      }
    </style>
  </defs>
  <g id="Plant">
    <g>
      <rect class="cls-2" width="74.32" height="136.26" rx="7.48" ry="7.48"/>
      <path class="cls-1" d="M58.95,73.46c-.57-2.62-3.56-12.83-15.04-16.47,1.22-.77,2.3-1.73,3.19-2.86h4.46c2.59,0,4.69-2.11,4.69-4.69v-6.4c0-1.08-.37-2.08-.99-2.88-5.98-17.26-30.18-17.29-36.19,0-.62,.8-.99,1.79-.99,2.88v6.4c0,2.59,2.11,4.69,4.69,4.69h4.46c.89,1.12,1.97,2.09,3.19,2.86-11.47,3.64-14.48,13.84-15.06,16.46-.5,2.21,1.16,4.7,3.81,4.7,7.78,0,28.45,0,35.97-.02,2.58,0,4.28-2.38,3.79-4.67h0Zm-5.68-30.42v6.4c0,.94-.76,1.7-1.7,1.7h-2.69c1.31-3.06,1.31-6.74,0-9.81h2.69c.94,0,1.7,.76,1.7,1.7Zm-27.8,8.1h-2.69c-.94,0-1.7-.76-1.7-1.7v-6.4c0-.94,.76-1.7,1.7-1.7h2.69c-1.31,3.06-1.31,6.74,0,9.81Zm-2.29-12.79c6-10.92,22-10.91,27.99,0h-4.07c-4.88-6.35-14.98-6.35-19.86,0h-4.07Zm4.29,7.89c0-5.35,4.35-9.7,9.7-9.7,6.6-.13,11.47,6.87,9.12,13h-5.92c-1.98,.07-1.98,2.92,0,2.99h4.18c-5.74,6.79-17.08,2.71-17.08-6.29h0Zm28.37,28.58c-.17,.21-.42,.32-.69,.32-7.53,.02-28.19,.02-35.97,.02-.55,.01-1.01-.54-.89-1.08,4.61-19.87,32.89-20.31,37.73,0,.05,.26-.01,.53-.18,.73h0Z"/>
      <line class="cls-3" x1="16.71" y1="88" x2="57.48" y2="88"/>
      <line class="cls-3" x1="16.71" y1="99.35" x2="57.48" y2="99.35"/>
      <line class="cls-3" x1="16.71" y1="110.71" x2="57.48" y2="110.71"/>
    </g>
  </g>
</svg>