<?xml version="1.0" encoding="UTF-8"?>
<svg id="Layer_2" data-name="Layer 2" xmlns="http://www.w3.org/2000/svg" viewBox="0 0 74.32 136.26">
  <defs>
    <style>
      .cls-1 {
        fill: #fff;
      }

      .cls-2 {
        fill: #6aac75;
      }
    </style>
  </defs>
  <g id="Plant">
    <g>
      <rect class="cls-2" width="74.32" height="136.26" rx="7.48" ry="7.48"/>
      <path class="cls-1" d="M24.41,77.12c1.93-1.93,1.93-5.08,0-7.02-.94-.94-2.18-1.45-3.51-1.45-.77,0-1.51,.17-2.17,.5-2.36-3.37-3.6-7.32-3.6-11.47,0-10.62,8.3-19.42,18.89-20.03,.72-.04,1.27-.66,1.23-1.38-.04-.72-.66-1.27-1.38-1.23-11.97,.69-21.35,10.64-21.35,22.64,0,4.79,1.46,9.34,4.24,13.2-1.27,1.92-1.06,4.54,.64,6.24,.94,.94,2.18,1.45,3.51,1.45s2.57-.52,3.51-1.45Zm-5.17-5.17c.46-.46,1.06-.69,1.66-.69s1.2,.23,1.66,.69c.92,.92,.92,2.41,0,3.32-.92,.92-2.41,.92-3.32,0s-.92-2.41,0-3.32Z"/>
      <path class="cls-1" d="M55.33,80.28c-.83,0-1.6,.22-2.27,.59-.6-1.89-2.37-3.27-4.46-3.27-1.32,0-2.52,.55-3.37,1.43-.24-.24-.5-.46-.78-.65,3.01-1.35,5.72-3.35,7.91-5.88,3.55-4.11,5.51-9.38,5.51-14.82,0-4.79-1.46-9.34-4.24-13.2,1.27-1.92,1.06-4.54-.64-6.24-1.93-1.93-5.08-1.93-7.02,0-1.93,1.93-1.93,5.08,0,7.02,.97,.97,2.24,1.45,3.51,1.45,.74,0,1.49-.17,2.17-.5,2.36,3.37,3.6,7.32,3.6,11.47,0,9.45-6.41,17.43-15.45,19.53v-7.03c5.18-1.91,8.72-6.92,8.72-12.5,0-7.35-5.98-13.33-13.33-13.33s-13.33,5.98-13.33,13.33c0,2.9,.92,5.66,2.65,7.97,1.51,2.02,3.6,3.59,5.95,4.48v19.21l-1.64-2.69c-1.38-2.26-4.26-3-6.55-1.67-2.18,1.26-3.03,4.02-1.93,6.31l4.87,9.84c.23,.46,.69,.73,1.17,.73,.19,0,.39-.04,.58-.14,.65-.32,.91-1.1,.59-1.75l-4.87-9.83c-.5-1.04-.11-2.32,.89-2.9,1.04-.6,2.39-.25,3.01,.77l4.06,6.66c.3,.5,.9,.74,1.47,.58s.95-.67,.95-1.26v-29.96c0-1.14,.92-2.06,2.06-2.06s2.06,.92,2.06,2.06v5.16s0,.02,0,.03v19.61c0,.72,.58,1.31,1.31,1.31s1.31-.58,1.31-1.31v-6.56c0-1.14,.92-2.06,2.06-2.06s2.06,.92,2.06,2.06v7.04c0,.72,.58,1.31,1.31,1.31s1.31-.58,1.31-1.31v-7.04c0-1.14,.92-2.06,2.06-2.06s2.06,.92,2.06,2.06v7.13c0,.72,.58,1.31,1.31,1.31s1.31-.58,1.31-1.31v-4.45c0-1.14,.92-2.06,2.06-2.06s2.06,.92,2.06,2.06v15.6c0,.72,.58,1.31,1.31,1.31s1.31-.58,1.31-1.31v-15.6c0-2.58-2.1-4.67-4.67-4.67Zm-7.5-36.86c-.92-.92-.92-2.41,0-3.32,.46-.46,1.06-.69,1.66-.69s1.2,.23,1.66,.69c.92,.92,.92,2.41,0,3.32-.92,.92-2.41,.92-3.32,0Zm-23.35,14.27c0-5.91,4.81-10.72,10.72-10.72s10.71,4.81,10.71,10.72c0,4.16-2.44,7.92-6.1,9.67v-3.32c0-.73-.17-1.43-.47-2.05,1.16-1.12,1.84-2.67,1.84-4.31,0-3.3-2.68-5.98-5.98-5.98s-5.98,2.68-5.98,5.98c0,1.59,.65,3.12,1.76,4.23-.33,.64-.51,1.36-.51,2.12v3.26c-3.64-1.78-5.98-5.46-5.98-9.62Zm8.29,2.33c-.6-.62-.94-1.45-.94-2.33,0-1.86,1.51-3.37,3.37-3.37s3.37,1.51,3.37,3.37c0,.9-.36,1.75-.99,2.38-.71-.44-1.55-.69-2.44-.69s-1.67,.24-2.37,.65Z"/>
      <path class="cls-1" d="M39.82,38.12c.34,0,.68-.14,.92-.38,.24-.24,.38-.58,.38-.92s-.14-.68-.38-.92c-.24-.24-.58-.38-.92-.38s-.68,.14-.92,.38-.38,.58-.38,.92,.14,.68,.38,.92c.24,.24,.58,.38,.92,.38Z"/>
    </g>
  </g>
</svg>