<?xml version="1.0" encoding="UTF-8"?>
<svg id="Layer_2" data-name="Layer 2" xmlns="http://www.w3.org/2000/svg" viewBox="0 0 74.32 136.26">
  <defs>
    <style>
      .cls-1 {
        fill: #fff;
      }

      .cls-2 {
        fill: #6aac75;
      }
    </style>
  </defs>
  <g id="Plant">
    <g>
      <rect class="cls-2" width="74.32" height="136.26" rx="7.48" ry="7.48"/>
      <path class="cls-1" d="M30.44,47.71c-.7,0-1.48-.21-2.3-.8-1.45-1.06-1.88-2.66-1.25-4.74l.17-.56c.39-1.31,.79-2.66,1.25-3.99-1.03-.79-2.04-1.62-3.02-2.41l-.45-.37c-.62-.51-2.52-2.05-1.65-4.6,.41-1.21,1.48-2.66,4.21-2.71,.51-.01,1.02,0,1.53,0h.71c.17,0,.35,0,.52-.01,.48-.02,1.03-.04,1.6,.04,0,0,.01,0,.02,0,.02-.05,.04-.11,.07-.2,.32-1.02,.7-2.01,1.07-2.97,.15-.38,.3-.77,.44-1.15,.89-2.4,2.7-2.81,3.7-2.85,1.78-.05,3.17,.99,3.89,2.87l.22,.58c.46,1.2,.93,2.44,1.37,3.69,1.2-.02,2.36-.01,3.53,0h.82c.93,.01,2.28,.15,3.36,1.3,.74,.79,1.13,1.78,1.08,2.79-.05,1.05-.55,2.05-1.42,2.83-1.27,1.14-2.61,2.21-3.87,3.2,.35,.94,.65,1.9,.94,2.82,.2,.65,.41,1.29,.63,1.93,.58,1.7,.11,3.31-1.29,4.43-1.35,1.08-3.01,1.14-4.55,.14l-1.42-.91c-1.06-.67-2.11-1.35-3.15-2.04-1.03,.71-2.04,1.38-3.05,2.05l-1.04,.69c-.43,.29-1.42,.94-2.68,.94Zm-.37-3.68s.02,.03,.11,.1c.22,.16,.33,.24,1.03-.23l1.05-.69c1.07-.71,2.14-1.41,3.19-2.15,1.12-.79,2.32-.8,3.46-.03,1.09,.73,2.19,1.44,3.3,2.14l1.44,.92c.34,.22,.4,.17,.53,.06,.27-.21,.29-.3,.18-.63-.23-.67-.44-1.34-.65-2.01-.31-.98-.6-1.91-.95-2.83-.37-1-.5-2.45,1.06-3.66,1.25-.98,2.57-2.03,3.8-3.14,.2-.18,.27-.33,.28-.42,0-.1-.1-.23-.15-.28-.07-.07-.19-.2-.87-.21h-.82c-1.25-.01-2.51-.02-3.76,0-1.44,.05-2.44-.69-2.9-2.02-.45-1.3-.95-2.62-1.44-3.89l-.22-.59c-.25-.66-.47-.64-.55-.65-.2,0-.37,.01-.59,.6-.15,.4-.3,.79-.45,1.19-.37,.95-.71,1.85-1,2.77-.81,2.59-2.75,2.73-3.84,2.58-.28-.04-.64-.03-1.02-.01-.21,0-.42,.01-.64,.02h-.73c-.48,0-.96,0-1.44,0-.89,.02-.96,.23-1.01,.38-.05,.16-.1,.28,.56,.82l.45,.37c.99,.81,2.01,1.64,3.04,2.43,1.23,.94,1.61,2.2,1.1,3.66-.45,1.3-.86,2.66-1.25,3.98l-.17,.56c-.2,.65-.13,.86-.13,.86h0Z"/>
      <path class="cls-1" d="M30.44,81.79c-.7,0-1.49-.21-2.3-.8-1.45-1.06-1.88-2.65-1.25-4.74l.16-.55c.39-1.31,.8-2.67,1.25-4-1.04-.8-2.06-1.64-3.05-2.45l-.41-.34c-.62-.51-2.52-2.05-1.65-4.6,.41-1.21,1.48-2.66,4.2-2.71,.51,0,1.02,0,1.53,0h.71c.18,0,.35,0,.53-.01,.48-.02,1.02-.04,1.6,.04,0,0,0,0,.01,0,.02-.05,.04-.11,.07-.2,.32-1.02,.7-2.01,1.07-2.97,.15-.38,.3-.77,.44-1.15,.89-2.4,2.7-2.81,3.7-2.85,1.74-.05,3.17,.99,3.89,2.87l.22,.57c.46,1.21,.94,2.45,1.38,3.7,1.2-.02,2.36-.01,3.52,0h.83c.93,.01,2.28,.15,3.36,1.3,.74,.79,1.12,1.78,1.08,2.79-.05,1.05-.55,2.05-1.42,2.83-1.26,1.13-2.6,2.2-3.87,3.2,.35,.94,.65,1.9,.94,2.82,.2,.65,.41,1.29,.63,1.93,.58,1.7,.11,3.31-1.29,4.43-1.35,1.08-3.01,1.14-4.55,.14l-1.45-.93c-1.05-.67-2.1-1.34-3.13-2.03-1.02,.7-2.01,1.36-3.01,2.02l-1.08,.72c-.43,.29-1.42,.94-2.68,.94Zm-.37-3.68s.02,.03,.11,.1c.22,.16,.33,.24,1.03-.23l1.09-.72c1.06-.7,2.11-1.39,3.15-2.12,1.12-.79,2.32-.8,3.46-.03,1.08,.73,2.18,1.43,3.28,2.13l1.46,.93c.34,.22,.4,.17,.53,.06,.27-.21,.29-.3,.18-.63-.23-.67-.44-1.34-.65-2.01-.31-.98-.6-1.91-.95-2.83-.37-1-.49-2.45,1.06-3.66,1.45-1.13,2.65-2.1,3.8-3.14,.2-.18,.27-.33,.28-.42,0-.1-.1-.23-.15-.28-.07-.07-.19-.2-.87-.21h-.83c-1.25-.01-2.5-.02-3.75,0-1.42,0-2.44-.68-2.9-2.02-.45-1.3-.96-2.63-1.45-3.91l-.22-.57c-.25-.66-.46-.65-.55-.65-.19,0-.36,.01-.58,.6-.15,.4-.3,.79-.45,1.19-.37,.95-.71,1.85-1,2.77-.81,2.59-2.75,2.73-3.84,2.58-.28-.04-.64-.03-1.01-.01-.21,0-.43,.02-.64,.02h-.73c-.48,0-.97,0-1.45,0-.89,.02-.96,.23-1.01,.38-.05,.16-.1,.28,.56,.81l.41,.34c1,.82,2.04,1.67,3.07,2.46,1.23,.94,1.61,2.21,1.1,3.66-.45,1.3-.86,2.67-1.25,3.99l-.16,.55c-.2,.65-.13,.86-.13,.86h0Z"/>
      <path class="cls-1" d="M30.44,115.87c-.7,0-1.48-.21-2.3-.8-1.45-1.06-1.87-2.65-1.25-4.74l.17-.56c.39-1.31,.79-2.66,1.25-3.99-1.05-.81-2.08-1.65-3.08-2.47l-.38-.31c-.62-.51-2.52-2.05-1.65-4.6,.41-1.21,1.48-2.66,4.21-2.71,.51-.01,1.02,0,1.53,0h.71c.18,0,.35,0,.53-.01,.48-.02,1.02-.04,1.6,.04,0,0,0,0,.01,0,.02-.05,.04-.11,.07-.2,.32-1.02,.7-2.02,1.07-2.98,.15-.38,.29-.76,.44-1.15,.89-2.4,2.7-2.81,3.7-2.85,1.78-.06,3.17,.99,3.89,2.87l.22,.58c.46,1.2,.93,2.44,1.37,3.69,1.23-.02,2.42-.01,3.58,0h.77c.93,.01,2.28,.15,3.36,1.3,.74,.79,1.13,1.78,1.08,2.79-.05,1.05-.55,2.05-1.42,2.83-1.27,1.14-2.61,2.21-3.87,3.2,.35,.94,.65,1.9,.94,2.82,.2,.65,.41,1.29,.63,1.93,.58,1.7,.11,3.31-1.29,4.43-1.35,1.08-3.01,1.14-4.55,.14l-1.42-.91c-1.06-.67-2.11-1.35-3.15-2.04-1.03,.71-2.04,1.38-3.05,2.05l-1.04,.69c-.43,.29-1.42,.94-2.68,.94Zm-.37-3.68s.02,.03,.11,.1c.22,.16,.33,.24,1.03-.23l1.05-.69c1.07-.71,2.14-1.41,3.19-2.15,1.12-.79,2.32-.8,3.46-.03,1.09,.73,2.19,1.44,3.3,2.14l1.44,.92c.34,.22,.4,.17,.53,.06,.27-.21,.29-.3,.18-.63-.23-.67-.44-1.34-.65-2.01-.31-.98-.6-1.91-.95-2.83-.37-1-.5-2.45,1.06-3.66,1.25-.98,2.57-2.03,3.8-3.14,.2-.18,.27-.33,.28-.42,0-.1-.1-.23-.15-.28-.07-.07-.19-.2-.87-.21h-.77c-1.27-.01-2.54-.02-3.8,0-1.44,.02-2.44-.69-2.9-2.02-.45-1.3-.95-2.62-1.44-3.89l-.22-.59c-.25-.66-.46-.65-.55-.65-.2,0-.37,.01-.59,.6-.15,.4-.3,.79-.45,1.18-.37,.95-.71,1.86-1,2.78-.81,2.58-2.75,2.72-3.84,2.58-.28-.04-.64-.03-1.01-.01-.21,0-.43,.02-.64,.02h-.73c-.48,0-.96,0-1.44,0-.89,.02-.96,.23-1.01,.38-.05,.16-.1,.28,.56,.82l.39,.31c1.01,.83,2.06,1.68,3.1,2.48,1.23,.94,1.61,2.2,1.1,3.66-.45,1.3-.86,2.66-1.25,3.98l-.17,.56c-.2,.65-.13,.86-.13,.86h0Z"/>
    </g>
  </g>
</svg>