<svg width="34" height="60" viewBox="0 0 34 60" fill="none" xmlns="http://www.w3.org/2000/svg">
<g clip-path="url(#clip0_712_59)">
<path d="M27.83 57.8699H5.46999C3.40999 57.8699 1.73999 56.1999 1.73999 54.1399V21.4199C1.73999 19.3599 3.40999 17.6899 5.46999 17.6899H27.83C29.89 17.6899 31.56 19.3599 31.56 21.4199V54.1399C31.56 56.1999 29.89 57.8699 27.83 57.8699Z" stroke="#6AAC75" stroke-width="3.49" stroke-linecap="round" stroke-linejoin="round"/>
<path d="M27.83 17.7V1.75L25.04 3.73L22.25 1.75L19.46 3.73L16.67 1.75L13.88 3.73L11.09 1.75L8.30001 3.73L5.51001 1.75V17.7" stroke="#6AAC75" stroke-width="3.49" stroke-linecap="round" stroke-linejoin="round"/>
<path d="M25.03 47.06H8.27002V24.22H25.03V47.07V47.06Z" stroke="#6AAC75" stroke-width="3.49" stroke-linecap="round" stroke-linejoin="round"/>
<path d="M13.62 52.23H18.91" stroke="#6AAC75" stroke-width="3.49" stroke-linecap="round" stroke-linejoin="round"/>
</g>
<defs>
<clipPath id="clip0_712_59">
<rect width="33.3" height="59.61" fill="white"/>
</clipPath>
</defs>
</svg>
