<?xml version="1.0" encoding="UTF-8"?>
<svg id="Layer_2" data-name="Layer 2" xmlns="http://www.w3.org/2000/svg" viewBox="0 0 51.35 38.52">
  <defs>
    <style>
      .cls-1 {
        fill: #6aac75;
      }
    </style>
  </defs>
  <g id="Plant">
    <path class="cls-1" d="M40.66,0H10.7C4.8,0,0,4.8,0,10.7V27.82c0,5.9,4.8,10.7,10.7,10.7h29.96c5.9,0,10.7-4.8,10.7-10.7V10.7c0-5.9-4.8-10.7-10.7-10.7ZM19.26,34.24h-6.42v-5.35c0-1.77,1.44-3.21,3.21-3.21s3.21,1.44,3.21,3.21v5.35Zm19.26,0h-6.42v-5.35c0-1.77,1.44-3.21,3.21-3.21s3.21,1.44,3.21,3.21v5.35Zm8.56-6.42c0,2.79-1.79,5.17-4.28,6.05v-4.98c0-4.13-3.36-7.49-7.49-7.49s-7.49,3.36-7.49,7.49v5.35h-4.28v-5.35c0-4.13-3.36-7.49-7.49-7.49s-7.49,3.36-7.49,7.49v4.98c-2.49-.88-4.28-3.26-4.28-6.05V10.7c0-3.54,2.88-6.42,6.42-6.42h29.96c3.54,0,6.42,2.88,6.42,6.42V27.82ZM21.4,13.91c0,2.96-2.39,5.35-5.35,5.35s-5.35-2.39-5.35-5.35,2.39-5.35,5.35-5.35,5.35,2.39,5.35,5.35Zm19.26,0c0,2.96-2.39,5.35-5.35,5.35s-5.35-2.39-5.35-5.35,2.39-5.35,5.35-5.35,5.35,2.39,5.35,5.35Z"/>
  </g>
</svg>