<?xml version="1.0" encoding="UTF-8"?>
<svg id="Layer_2" data-name="Layer 2" xmlns="http://www.w3.org/2000/svg" viewBox="0 0 72 35.41">
  <defs>
    <style>
      .cls-1 {
        fill: #6aac75;
      }
    </style>
  </defs>
  <g id="Plant">
    <g>
      <path class="cls-1" d="M0,13.96l1.8-1.69c1.13,1.39,2.47,2.1,4.23,2.1,2.06,0,3.12-1.02,3.12-2.56,0-1.25-.65-1.96-2.52-2.33l-1.43-.25C2.08,8.64,.49,7.19,.49,4.62,.49,1.76,2.7,0,6.12,0c2.43,0,4.21,.88,5.45,2.47l-1.83,1.62c-.83-1.09-1.99-1.78-3.77-1.78s-2.91,.76-2.91,2.17,.83,1.92,2.56,2.26l1.43,.3c3.21,.62,4.67,2.06,4.67,4.62,0,3-2.15,5.01-5.85,5.01-2.7,0-4.55-1.06-5.89-2.73Z"/>
      <path class="cls-1" d="M45.77,16.41V.28h10.33V2.59h-7.72V7.07h7v2.31h-7v4.71h7.72v2.31h-10.33Z"/>
      <path class="cls-1" d="M59.48,.28h5.71c4.11,0,6.82,2.68,6.82,8.06s-2.7,8.06-6.82,8.06h-5.71V.28Zm5.71,13.82c2.4,0,4.02-1.55,4.02-4.46v-2.59c0-2.91-1.62-4.46-4.02-4.46h-3.1V11c0,1.71,1.39,3.1,3.1,3.1h0Z"/>
      <path class="cls-1" d="M1.06,35.33V19.2H7.99c2.96,0,4.69,1.92,4.69,4.85s-1.73,4.85-4.69,4.85H3.67v6.42H1.06Zm2.61-12.87c0,2.3,1.86,4.16,4.16,4.16h0c1.32,0,2.1-.72,2.1-2.01v-1.11c0-1.29-.79-2.01-2.1-2.01H3.67v.97Z"/>
      <path class="cls-1" d="M34.3,35.33v-6.35l-5.55-9.77h2.98l3.93,7.19h.07l3.9-7.19h2.87l-5.59,9.73v6.4h-2.61Z"/>
      <circle class="cls-1" cx="50.23" cy="32.88" r="2.53"/>
      <circle class="cls-1" cx="59.48" cy="32.88" r="2.53"/>
      <circle class="cls-1" cx="68.73" cy="32.88" r="2.53"/>
      <circle class="cls-1" cx="4.47" cy="26.62" r="1.12"/>
      <path class="cls-1" d="M26.8,32.69l-4.09-12c-.16-.46-.45-.85-.83-1.12-.38-.27-.84-.43-1.33-.43s-.95,.16-1.33,.42v7.13c.4,.17,.68,.57,.68,1.03,0,.62-.5,1.12-1.12,1.12s-1.12-.5-1.12-1.12c0-.46,.28-.86,.68-1.03v-5.91l-4.08,11.96c-.07,.21-.1,.42-.1,.62,0,1,.82,1.9,1.9,1.9l.48-1.49c.28-.86,.82-1.58,1.51-2.08,.69-.51,1.55-.8,2.45-.8,1.79,0,3.38,1.14,3.95,2.84l.51,1.52c1.34,0,2.28-1.31,1.85-2.58Z"/>
      <g>
        <path class="cls-1" d="M17.66,9.66c0-.62,.5-1.12,1.12-1.12,.46,0,.86,.28,1.03,.68h5.43l-2.52-7.39c-.16-.46-.45-.85-.83-1.12-.38-.27-.84-.43-1.33-.43-.98,0-1.86,.62-2.17,1.55l-4.11,12.06c-.07,.21-.1,.42-.1,.62,0,1,.82,1.9,1.9,1.9l.48-1.49c.28-.86,.82-1.58,1.51-2.08,.09-.07,.19-.13,.29-.19v-1.96c-.4-.17-.68-.57-.68-1.03Z"/>
        <path class="cls-1" d="M26.8,13.83l-1.27-3.73h-5.73c-.11,.27-.33,.48-.6,.6v1.55c.41-.14,.84-.21,1.29-.21,1.79,0,3.38,1.14,3.95,2.84l.51,1.52c1.34,0,2.28-1.31,1.85-2.58Z"/>
      </g>
      <path class="cls-1" d="M42.4,13.83L38.31,1.83c-.16-.46-.46-.85-.84-1.12-.38-.27-.84-.43-1.33-.43-.98,0-1.85,.62-2.17,1.55l-2.52,7.39h5.12c.17-.4,.57-.68,1.03-.68,.62,0,1.12,.5,1.12,1.12s-.5,1.12-1.12,1.12c-.46,0-.86-.28-1.03-.68h-5.42l-1.29,3.8c-.07,.21-.1,.42-.1,.62,0,1,.82,1.9,1.9,1.9l.48-1.49c.28-.86,.82-1.58,1.51-2.08,.7-.51,1.55-.8,2.45-.8,1.79,0,3.38,1.14,3.95,2.84l.51,1.52c1.34,0,2.28-1.31,1.85-2.58Z"/>
    </g>
  </g>
</svg>