<?xml version="1.0" encoding="UTF-8"?>
<svg id="Layer_2" data-name="Layer 2" xmlns="http://www.w3.org/2000/svg" viewBox="0 0 45.6 46.97">
  <defs>
    <style>
      .cls-1 {
        fill: #6aac75;
      }
    </style>
  </defs>
  <g id="Plant">
    <g>
      <path class="cls-1" d="M22.77,46.97c-1.28,0-2.56,.01-3.84,0-1.9-.02-3.31-1.2-3.67-3.06-.15-.75-.26-1.5-.38-2.25-.31-1.91-1.84-2.86-3.7-2.26-.75,.24-1.48,.56-2.23,.82-1.83,.63-3.6,.02-4.58-1.64-1.31-2.2-2.59-4.42-3.84-6.65-.95-1.7-.56-3.59,.93-4.86,.6-.51,1.23-1,1.82-1.53,1.33-1.23,1.34-2.84,.02-4.06-.63-.58-1.31-1.09-1.95-1.65C-.02,18.64-.41,16.74,.47,15.16c1.27-2.29,2.58-4.56,3.93-6.81,.96-1.61,2.73-2.2,4.52-1.6,.72,.24,1.42,.54,2.14,.79,1.95,.66,3.5-.27,3.82-2.28,.12-.75,.24-1.5,.39-2.25C15.63,1.21,17.06,.03,18.9,.01c2.59-.02,5.18-.02,7.77,0,1.9,.01,3.31,1.2,3.67,3.06,.15,.75,.26,1.5,.38,2.25,.31,1.91,1.84,2.85,3.7,2.26,.72-.23,1.43-.54,2.14-.79,1.91-.67,3.69-.06,4.72,1.69,1.27,2.15,2.52,4.32,3.74,6.49,.99,1.76,.63,3.64-.89,4.94-.6,.51-1.23,1-1.82,1.53-1.35,1.25-1.36,2.81-.02,4.06,.63,.58,1.31,1.09,1.95,1.65,1.36,1.18,1.76,3.07,.88,4.65-1.27,2.29-2.58,4.56-3.93,6.81-.96,1.61-2.73,2.21-4.52,1.6-.72-.24-1.42-.54-2.14-.79-1.95-.67-3.5,.27-3.82,2.28-.12,.75-.23,1.5-.39,2.25-.37,1.8-1.79,2.98-3.63,3-1.31,.02-2.62,0-3.93,0Zm18.78-16.72c0-.3-.16-.44-.33-.58-.42-.35-.84-.7-1.27-1.05-3.38-2.77-3.37-7.51,.04-10.29,.4-.33,.79-.67,1.2-.99,.4-.3,.41-.6,.17-1.02-1.05-1.79-2.08-3.58-3.1-5.39-.22-.4-.47-.49-.89-.32-.65,.27-1.3,.52-1.97,.73-3.91,1.22-7.81-1.19-8.46-5.23-.08-.51-.2-1.02-.26-1.53-.07-.59-.35-.82-.96-.8-1.43,.04-2.86,.01-4.3,.01q-2.39,0-2.78,2.41c-.51,3.15-3.2,5.42-6.39,5.46-1.42,.02-2.67-.54-3.95-1.02-.5-.19-.76-.1-1.02,.37-.72,1.31-1.47,2.6-2.23,3.89q-1.15,1.98,.63,3.47c.09,.08,.19,.16,.28,.24,2.91,2.66,2.93,7.04,.03,9.71-.43,.39-.86,.79-1.34,1.1-.67,.43-.67,.87-.26,1.51,.73,1.16,1.39,2.36,2.07,3.55q1.17,2.05,3.34,1.27c.06-.02,.11-.04,.17-.06,4.01-1.37,8.01,1.03,8.68,5.21,.08,.51,.2,1.02,.26,1.53,.07,.56,.33,.77,.91,.75,1.37-.03,2.74-.01,4.11-.01q2.58,0,3.03-2.55c.53-3.04,3.23-5.27,6.32-5.32,1.42-.02,2.68,.52,3.95,1,.47,.17,.76,.19,1.04-.31,.99-1.78,2.03-3.54,3.04-5.31,.09-.16,.16-.32,.22-.44Z"/>
      <path class="cls-1" d="M31.96,23.44c.04,4.93-4.15,9.17-9.12,9.21-4.93,.04-9.17-4.15-9.21-9.12-.04-4.93,4.15-9.16,9.12-9.21,4.93-.04,9.16,4.15,9.21,9.12Zm-3.91,0c-.01-2.87-2.38-5.21-5.27-5.21-2.87,0-5.23,2.37-5.23,5.25,0,2.92,2.39,5.28,5.32,5.26,2.87-.02,5.2-2.4,5.19-5.29Z"/>
    </g>
  </g>
</svg>