<?xml version="1.0" encoding="UTF-8"?>
<svg id="Layer_2" data-name="Layer 2" xmlns="http://www.w3.org/2000/svg" viewBox="0 0 51.35 51.35">
  <defs>
    <style>
      .cls-1 {
        fill: #6aac75;
      }
    </style>
  </defs>
  <g id="Plant">
    <path class="cls-1" d="M14.98,29.96c0,1.18-.96,2.14-2.14,2.14h-2.14c-1.18,0-2.14-.96-2.14-2.14s.96-2.14,2.14-2.14h2.14c1.18,0,2.14,.96,2.14,2.14Zm8.56-2.14h-2.14c-1.18,0-2.14,.96-2.14,2.14s.96,2.14,2.14,2.14h2.14c1.18,0,2.14-.96,2.14-2.14s-.96-2.14-2.14-2.14Zm-10.7,8.56h-2.14c-1.18,0-2.14,.96-2.14,2.14s.96,2.14,2.14,2.14h2.14c1.18,0,2.14-.96,2.14-2.14s-.96-2.14-2.14-2.14Zm10.7,0h-2.14c-1.18,0-2.14,.96-2.14,2.14s.96,2.14,2.14,2.14h2.14c1.18,0,2.14-.96,2.14-2.14s-.96-2.14-2.14-2.14ZM12.84,10.7h-2.14c-1.18,0-2.14,.96-2.14,2.14s.96,2.14,2.14,2.14h2.14c1.18,0,2.14-.96,2.14-2.14s-.96-2.14-2.14-2.14Zm10.7,0h-2.14c-1.18,0-2.14,.96-2.14,2.14s.96,2.14,2.14,2.14h2.14c1.18,0,2.14-.96,2.14-2.14s-.96-2.14-2.14-2.14Zm-10.7,8.56h-2.14c-1.18,0-2.14,.96-2.14,2.14s.96,2.14,2.14,2.14h2.14c1.18,0,2.14-.96,2.14-2.14s-.96-2.14-2.14-2.14Zm10.7,0h-2.14c-1.18,0-2.14,.96-2.14,2.14s.96,2.14,2.14,2.14h2.14c1.18,0,2.14-.96,2.14-2.14s-.96-2.14-2.14-2.14Zm27.82,2.14v19.26c0,5.91-4.79,10.69-10.7,10.7H10.7c-5.91,0-10.69-4.79-10.7-10.7V10.7C0,4.79,4.79,0,10.7,0h12.84c5.91,0,10.69,4.79,10.7,10.7h6.42c5.91,0,10.69,4.79,10.7,10.7ZM10.7,47.07H29.96V10.7c0-3.55-2.87-6.42-6.42-6.42H10.7c-3.55,0-6.42,2.87-6.42,6.42v29.96c0,3.55,2.87,6.42,6.42,6.42ZM47.07,21.4c0-3.55-2.87-6.42-6.42-6.42h-6.42V47.07h6.42c3.55,0,6.42-2.87,6.42-6.42V21.4Zm-6.42,6.42c-1.18,0-2.14,.96-2.14,2.14s.96,2.14,2.14,2.14,2.14-.96,2.14-2.14-.96-2.14-2.14-2.14Zm0,8.56c-1.18,0-2.14,.96-2.14,2.14s.96,2.14,2.14,2.14,2.14-.96,2.14-2.14-.96-2.14-2.14-2.14Zm0-17.12c-1.18,0-2.14,.96-2.14,2.14s.96,2.14,2.14,2.14,2.14-.96,2.14-2.14-.96-2.14-2.14-2.14Z"/>
  </g>
</svg>